User Type,Username,Date,Text
,sskain,2012-03-20T10:30Z,".cue


REM GENRE Punk Rock
REM DATE 1981
PERFORMER ""The Stranglers""
TITLE ""The Gospel According to the Meninblack""
FILE ""The Stranglers - The Meninblack side 1.flac"" WAVE
TRACK 01 AUDIO
TITLE ""Waltzinblack""
INDEX 01 00:00:00
TRACK 02 AUDIO
TITLE ""Just Like Nothing on Earth""
INDEX 01 03:38:43
TRACK 03 AUDIO
TITLE ""Second Coming""
INDEX 01 07:32:45
TRACK 04 AUDIO
TITLE ""Waiting for the Meninblack""
INDEX 01 11:52:33
TRACK 05 AUDIO
TITLE ""Turn the Centuries, Turn""
INDEX 01 15:37:03
FILE ""The Stranglers - The Meninblack side 2.flac"" WAVE
TRACK 06 AUDIO
TITLE ""Two Sunspots""
INDEX 01 00:00:00
TRACK 07 AUDIO
TITLE ""Four Horsemen""
INDEX 01 02:33:72
TRACK 08 AUDIO
TITLE ""Thrown Away""
INDEX 01 06:13:47
TRACK 09 AUDIO
TITLE ""Manna Machine""
INDEX 01 09:43:27
TRACK 10 AUDIO
TITLE ""Hallow to Our Men""
INDEX 01 13:00:05"
